<?xml version="1.0" encoding="UTF-8" standalone="no"?>
<!-- Created with Inkscape (http://www.inkscape.org/) -->

<svg
   xmlns:dc="http://purl.org/dc/elements/1.1/"
   xmlns:cc="http://creativecommons.org/ns#"
   xmlns:rdf="http://www.w3.org/1999/02/22-rdf-syntax-ns#"
   xmlns:svg="http://www.w3.org/2000/svg"
   xmlns="http://www.w3.org/2000/svg"
   xmlns:sodipodi="http://sodipodi.sourceforge.net/DTD/sodipodi-0.dtd"
   xmlns:inkscape="http://www.inkscape.org/namespaces/inkscape"
   width="400"
   height="400"
   viewBox="0 0 400 400.00001"
   id="svg2"
   version="1.1"
   inkscape:version="0.91 r13725"
   sodipodi:docname="eq1.svg">
  <sodipodi:namedview
     id="base"
     pagecolor="#ffffff"
     bordercolor="#666666"
     borderopacity="1.0"
     inkscape:pageopacity="0.0"
     inkscape:pageshadow="2"
     inkscape:zoom="0.35"
     inkscape:cx="-26.428571"
     inkscape:cy="520"
     inkscape:document-units="px"
     inkscape:current-layer="layer1"
     showgrid="false"
     inkscape:window-width="1301"
     inkscape:window-height="744"
     inkscape:window-x="65"
     inkscape:window-y="24"
     inkscape:window-maximized="1"
     units="px" />
  <defs
     id="defs4" />
  <metadata
     id="metadata7">
    <rdf:RDF>
      <cc:Work
         rdf:about="">
        <dc:format>image/svg+xml</dc:format>
        <dc:type
           rdf:resource="http://purl.org/dc/dcmitype/StillImage" />
        <dc:title></dc:title>
      </cc:Work>
    </rdf:RDF>
  </metadata>
  <g
     id="layer1"
     inkscape:groupmode="layer"
     inkscape:label="Camada 1"
     transform="translate(0,-652.36216)">
    <g
       id="g3341"
       transform="matrix(1.4095692,0,0,1.4095692,-376.23964,367.12544)">
      <g
         word-spacing="normal"
         letter-spacing="normal"
         font-size-adjust="none"
         font-stretch="normal"
         font-weight="normal"
         font-variant="normal"
         font-style="normal"
         stroke-miterlimit="10.433"
         xml:space="preserve"
         transform="matrix(1.0629921,0,0,-1.0629921,-186.02362,789.27165)"
         id="content"
         style="font-style:normal;font-variant:normal;font-weight:normal;font-stretch:normal;letter-spacing:normal;word-spacing:normal;text-anchor:start;fill:none;fill-opacity:1;fill-rule:evenodd;stroke:#000000;stroke-linecap:butt;stroke-linejoin:miter;stroke-miterlimit:10.43299961;stroke-dasharray:none;stroke-dashoffset:0;stroke-opacity:1"><path
           id="path3344"
           d="m 494.38,439.14 0.01,0.01 0.01,0.02 0.01,0.01 0.01,0.02 0.01,0.02 0.01,0.02 0.01,0.02 0.01,0.02 0.01,0.02 0.01,0.02 0.01,0.02 0.01,0.03 0.02,0.04 0.02,0.05 0.02,0.05 0.01,0.05 0.01,0.03 0.01,0.02 0.01,0.02 0,0.03 0.01,0.02 0,0.02 0.01,0.03 0,0.02 0.01,0.02 0,0.02 0,0.02 0,0.01 c 0,0.36 -0.05,0.41 -1.19,0.41 l -34.39,0 c -1.14,0 -1.19,-0.05 -1.19,-0.41 0,-0.18 0.14,-0.54 0.25,-0.68 l 16.78,-33.64 c 0.36,-0.64 0.5,-0.94 1.35,-0.94 0.86,0 1,0.3 1.36,0.94 l 0.14,3.75 -13.7,27.39 27.35,0 -13.65,-27.39 -0.14,-3.75 z"
           inkscape:connector-curvature="0"
           style="fill:#000000;stroke-width:0" /><path
           id="path3346"
           d="m 517.76,418.65 0,0.14 -0.01,0.13 -0.02,0.13 -0.02,0.13 -0.03,0.13 -0.04,0.13 -0.04,0.12 -0.05,0.12 -0.05,0.11 -0.06,0.12 -0.06,0.11 -0.07,0.11 -0.07,0.1 -0.08,0.1 -0.09,0.1 -0.08,0.09 -0.1,0.08 -0.09,0.09 -0.1,0.08 -0.1,0.07 -0.11,0.07 -0.11,0.06 -0.12,0.06 -0.11,0.05 -0.12,0.05 -0.13,0.04 -0.12,0.04 -0.13,0.03 -0.13,0.02 -0.13,0.02 -0.13,0.01 -0.14,0 c -1.44,0 -2.64,-1.18 -2.64,-2.64 0,-1.44 1.2,-2.64 2.64,-2.64 1.45,0 2.64,1.2 2.64,2.64 z"
           inkscape:connector-curvature="0"
           style="fill:#000000;stroke-width:0" /><path
           id="path3348"
           d="m 549.52,394.25 0,0.02 0,0.03 0,0.01 -0.01,0.02 0,0.01 0,0.02 -0.01,0.01 -0.01,0.02 0,0.02 -0.01,0.02 -0.02,0.02 -0.01,0.03 -0.02,0.02 -0.02,0.03 -0.02,0.03 -0.02,0.03 -0.03,0.03 -0.03,0.04 -0.01,0.02 -0.02,0.02 -0.02,0.02 -0.01,0.02 -0.02,0.02 -0.02,0.03 -0.02,0.02 -0.03,0.02 -0.02,0.03 -0.02,0.02 -0.03,0.03 -0.02,0.03 -0.03,0.03 -0.03,0.03 -0.03,0.03 -0.03,0.03 -0.03,0.03 -0.03,0.03 -0.03,0.04 -0.04,0.03 -0.03,0.04 -0.04,0.03 -0.04,0.04 -0.03,0.04 c -6.22,6.28 -7.82,15.69 -7.82,23.31 0,8.67 1.89,17.35 8.02,23.56 0.64,0.61 0.64,0.71 0.64,0.86 0,0.35 -0.19,0.49 -0.49,0.49 -0.5,0 -4.98,-3.38 -7.92,-9.7 -2.54,-5.49 -3.14,-11.02 -3.14,-15.21 0,-3.89 0.55,-9.9 3.28,-15.54 2.99,-6.13 7.28,-9.36 7.78,-9.36 0.3,0 0.49,0.14 0.49,0.5 z"
           inkscape:connector-curvature="0"
           style="fill:#000000;stroke-width:0" /><path
           id="path3350"
           d="m 559.5,417.51 0.16,-0.06 0.15,-0.06 0.15,-0.06 0.15,-0.05 0.15,-0.05 0.15,-0.04 0.14,-0.05 0.15,-0.03 0.14,-0.04 0.14,-0.03 0.28,-0.06 0.28,-0.05 0.27,-0.03 0.26,-0.03 0.26,-0.02 0.26,-0.02 0.25,-0.01 0.24,-0.01 0.24,0 0.24,0 0.22,0 0,1.09 c -1.09,0 -1.7,0 -2.63,0.25 l 0,0 c 1.13,0.41 2.18,0.46 3.03,0.46 1.25,0 1.45,-0.05 2.34,-0.3 -0.75,-0.35 -0.84,-0.41 -2.74,-0.41 l 0,-1.09 c 1.3,0 4.04,0 4.04,1.55 0,1.2 -1.75,1.34 -3.64,1.34 -1.05,0 -2.78,-0.09 -4.63,-0.94 -1.15,0.6 -2,1.53 -2,2.88 0,3.04 4.89,4.84 9.38,4.84 0.79,0 2.57,0 4.57,-1.41 0.55,-0.39 0.65,-0.48 1,-0.48 0.65,0 1.35,0.64 1.35,1.34 0,0.94 -3.05,2.83 -6.42,2.83 -5.74,0 -11.11,-3.33 -11.11,-7.12 0,-2.14 1.78,-3.38 1.98,-3.53 -2.94,-1.65 -4.53,-4.44 -4.53,-6.72 0,-3.25 2.84,-6.28 8.13,-6.28 6.57,0 9.35,4.37 9.35,5.12 0,0.3 -0.25,0.5 -0.54,0.5 -0.25,0 -0.39,-0.2 -0.5,-0.34 -0.71,-1.14 -1.89,-2.99 -7.88,-2.99 -3.03,0 -7.26,0.74 -7.26,4.28 0,1.69 1.39,4.33 4.43,5.83 z"
           inkscape:connector-curvature="0"
           style="fill:#000000;stroke-width:0" /><path
           id="path3352"
           d="m 614.61,439.14 0.01,0.01 0.01,0.02 0.01,0.01 0.01,0.02 0.01,0.02 0.01,0.02 0.01,0.02 0.01,0.02 0.01,0.02 0.01,0.02 0.01,0.02 0.01,0.03 0.02,0.04 0.02,0.05 0.02,0.05 0.01,0.05 0.01,0.03 0.01,0.02 0.01,0.02 0,0.03 0.01,0.02 0,0.02 0.01,0.03 0,0.02 0.01,0.02 0,0.02 0,0.02 0,0.01 c 0,0.36 -0.05,0.41 -1.19,0.41 l -34.39,0 c -1.14,0 -1.19,-0.05 -1.19,-0.41 0,-0.18 0.14,-0.54 0.25,-0.68 l 16.78,-33.64 c 0.36,-0.64 0.5,-0.94 1.35,-0.94 0.86,0 1,0.3 1.36,0.94 l 0.14,3.75 -13.7,27.39 27.35,0 -13.65,-27.39 -0.14,-3.75 z"
           inkscape:connector-curvature="0"
           style="fill:#000000;stroke-width:0" /><path
           id="path3354"
           d="m 639.03,439.57 0.01,0.01 0,0.01 0,0 0,0.01 0,0.01 0,0.01 0,0 0,0.01 0.01,0.02 0,0.03 0,0.02 0.01,0.02 0.01,0.03 0,0.03 0.01,0.02 0,0.03 0.01,0.03 0.01,0.03 0.01,0.06 0.02,0.06 0,0.03 0.01,0.02 0.01,0.03 0,0.03 0.01,0.02 0.01,0.02 0,0.02 0.01,0.02 0,0.01 0,0.01 0,0.01 0,0.01 0.01,0 0,0.01 0,0.01 0,0 0,0.01 0,0 0,0 0,0.01 c 0,0.04 0,0.5 -0.59,0.5 -0.5,0 -0.55,-0.16 -0.75,-1 l -2.89,-11.5 c -7.93,-0.25 -15.25,-6.88 -15.25,-13.66 0,-4.73 3.48,-8.67 9.56,-9.01 l 0.25,1.09 c -2.99,0.14 -6.58,1.89 -6.58,6.87 0,5.99 4.3,12.96 11.72,13.6 l -5.14,-20.47 -0.25,-1.09 c -0.39,-1.55 -0.74,-3.15 -1.14,-4.69 -0.6,-2.35 -1.1,-4.24 -1.1,-4.39 0,-0.49 0.35,-0.55 0.6,-0.55 0.25,0 0.36,0.06 0.5,0.2 0.09,0.1 0.4,1.3 0.55,2 l 1.89,7.43 0.25,1.09 5.14,20.47 c 3.78,-0.19 6.62,-2.49 6.62,-6.88 0,-5.87 -4.28,-13 -11.76,-13.59 l -0.25,-1.09 c 8.03,0.25 15.25,6.96 15.25,13.64 0,3.93 -2.64,8.53 -9.57,9.03 z"
           inkscape:connector-curvature="0"
           style="fill:#000000;stroke-width:0" /><path
           id="path3356"
           d="m 661.3,418.65 0,0.37 -0.01,0.39 -0.01,0.39 -0.01,0.41 -0.04,0.84 -0.06,0.88 -0.08,0.92 -0.11,0.95 -0.13,0.97 -0.17,1.01 -0.19,1.02 -0.23,1.03 -0.27,1.05 -0.31,1.06 -0.35,1.07 -0.39,1.07 -0.21,0.53 -0.23,0.53 -0.23,0.53 -0.25,0.53 c -2.99,6.12 -7.27,9.36 -7.77,9.36 -0.3,0 -0.5,-0.19 -0.5,-0.49 0,-0.15 0,-0.25 0.94,-1.15 4.89,-4.92 7.73,-12.85 7.73,-23.27 0,-8.51 -1.84,-17.28 -8.03,-23.56 -0.64,-0.59 -0.64,-0.7 -0.64,-0.84 0,-0.3 0.2,-0.5 0.5,-0.5 0.5,0 4.97,3.39 7.92,9.71 2.53,5.47 3.13,11 3.13,15.19 z"
           inkscape:connector-curvature="0"
           style="fill:#000000;stroke-width:0" /></g>    </g>
  </g>
</svg>
